PathFileType	4	(X/Y/Z)	/Users/itak/Documents/Research/Walk-IL/dataset/trc/00409_00012.trc
DataRate	CameraRate	NumFrames	NumMarkers	Units	OrigDataRate	OrigDataStartFrame	OrigNumFrames
100.000000	100.000000	4	56	mm	100.000000	83	667
Frame#	Time	RPSI			LPSI			L3			STRN			T10			C7			CLAV			RBAK			LBAK			LSHO			LUPA			LAEL			LAOL			LWTS			LWPS			LFRA			LHPS			LHTS			RSHO			RUPA			RAEL			RAOL			RWTS			RWPS			RFRA			RIFD			RHTS			RHPS			RBHD			LFHD			RFHD			LBHD			LHIP			RHIP			RASI			LASI			LKNE			LTHI			LANK			LTIP			LTOE			LMT1			LMT5			LHEE			RKNE			RTHI			RANK			RTIP			RTOE			RMT5			RHEE			LIFD			RMT1			*53			*54			*55			
		X1	Y1	Z1	X2	Y2	Z2	X3	Y3	Z3	X4	Y4	Z4	X5	Y5	Z5	X6	Y6	Z6	X7	Y7	Z7	X8	Y8	Z8	X9	Y9	Z9	X10	Y10	Z10	X11	Y11	Z11	X12	Y12	Z12	X13	Y13	Z13	X14	Y14	Z14	X15	Y15	Z15	X16	Y16	Z16	X17	Y17	Z17	X18	Y18	Z18	X19	Y19	Z19	X20	Y20	Z20	X21	Y21	Z21	X22	Y22	Z22	X23	Y23	Z23	X24	Y24	Z24	X25	Y25	Z25	X26	Y26	Z26	X27	Y27	Z27	X28	Y28	Z28	X29	Y29	Z29	X30	Y30	Z30	X31	Y31	Z31	X32	Y32	Z32	X33	Y33	Z33	X34	Y34	Z34	X35	Y35	Z35	X36	Y36	Z36	X37	Y37	Z37	X38	Y38	Z38	X39	Y39	Z39	X40	Y40	Z40	X41	Y41	Z41	X42	Y42	Z42	X43	Y43	Z43	X44	Y44	Z44	X45	Y45	Z45	X46	Y46	Z46	X47	Y47	Z47	X48	Y48	Z48	X49	Y49	Z49	X50	Y50	Z50	X51	Y51	Z51	X52	Y52	Z52	X53	Y53	Z53	X54	Y54	Z54	X55	Y55	Z55	X56	Y56	Z56	

84	0.8300000000000001	94.9183349609375	951.8919067382812	1103.226318359375	83.23928833007812	955.7730102539062	1233.330810546875	81.28892517089844	1036.971313476562	1167.00634765625	-163.1817932128906	1174.0830078125	1119.086669921875	80.67723846435547	1137.421264648438	1182.29345703125	24.59939002990723	1383.709106445312	1177.752685546875	-118.9462509155273	1296.338745117188	1128.099609375	95.87953186035156	1241.609497070312	1132.127075195312	10.96137428283691	1349.142822265625	1282.636962890625	-87.74904632568359	1360.7763671875	1302.713623046875	-85.19026947021484	1247.481811523438	1382.675415039062	-125.6582946777344	1050.725952148438	1402.605712890625	-49.91831588745117	1023.82421875	1374.045776367188	-247.9674530029297	918.2403564453125	1258.9755859375	-252.3209381103516	873.8217163085938	1327.213500976562	-176.4837188720703	966.2239379882812	1378.186767578125	-288.8110961914062	808.7368774414062	1283.964233398438	-309.9200439453125	839.9762573242188	1232.2841796875	18.97574234008789	1357.381225585938	1010.673278808594	62.38875579833984	1297.086059570312	966.4139404296875	128.4425964355469	1041.821166992188	948.2492065429688	108.822639465332	1034.112060546875	1040.156372070312	33.67494964599609	808.40673828125	935.595703125	96.34195709228516	805.7913208007812	895.68212890625	122.7730712890625	974.2950439453125	925.4252319335938	70.47205352783203	636.4832763671875	940.26513671875	44.64786148071289	701.439208984375	917.3748779296875	109.1483612060547	719.2037963867188	899.8233032226562	16.67347145080566	1560.32275390625	1076.097778320312	-165.5831451416016	1573.940063476562	1153.7314453125	-113.0908966064453	1568.453491210938	1042.874145507812	-37.66265869140625	1564.140869140625	1227.3671875	-12.26699066162109	941.7131958007812	1338.713256835938	22.06243324279785	929.4344482421875	981.607177734375	-112.6522979736328	937.8286743164062	1027.88427734375	-125.2653961181641	929.4143676757812	1291.807006835938	40.17873001098633	452.8258056640625	1324.10009765625	13.57514381408691	594.4732666015625	1331.95654296875	243.1199493408203	44.34650039672852	1282.146728515625	146.7788696289062	239.7325286865234	1316.74951171875	23.61492347717285	45.04966735839844	1235.053955078125	100.4463119506836	44.08784103393555	1196.615478515625	118.6972503662109	40.10358428955078	1304.252197265625	277.9962768554688	45.28611755371094	1223.73779296875	-193.3058776855469	477.876708984375	997.51806640625	-109.2646942138672	726.6222534179688	975.1820678710938	-310.2314147949219	64.81465911865234	1033.657104492188	-247.973876953125	363.8067016601562	1004.016540527344	-486.8805541992188	116.1897964477539	1039.529541015625	-385.9888916015625	80.13497161865234	1001.516479492188	-265.3544921875	35.1800422668457	1106.81982421875	-307.9754333496094	760.6680908203125	1196.94921875	-431.21533203125	96.90536499023438	1089.800659179688	nan	nan	nan	nan	nan	nan	nan	nan	nan	
85	0.84	87.51608276367188	950.2423706054688	1101.415649414062	75.25736999511719	954.3350219726562	1231.462646484375	73.70510864257812	1034.976318359375	1165.332275390625	-170.3114929199219	1172.229736328125	1115.914794921875	73.44529724121094	1135.581420898438	1180.493774414062	17.33346939086914	1381.792846679688	1175.634399414062	-126.0375900268555	1294.477661132812	1124.994018554688	88.75105285644531	1239.6044921875	1130.803466796875	3.018233060836792	1347.309448242188	1280.347900390625	-95.80063629150391	1358.986083984375	1299.860229492188	-93.71701812744141	1245.5205078125	1379.796630859375	-134.5257263183594	1048.932983398438	1399.247802734375	-58.80674743652344	1021.816528320312	1370.967041015625	-256.9625244140625	917.8978881835938	1254.44873046875	-262.0162658691406	873.32958984375	1322.601318359375	-185.7772064208984	964.8814086914062	1374.307739257812	-298.8187561035156	808.7018432617188	1278.938232421875	-319.9840698242188	840.4197387695312	1227.792724609375	12.94082260131836	1355.247436523438	1008.573608398438	56.84074401855469	1294.99462890625	964.9705810546875	124.1475372314453	1039.879516601562	949.1197509765625	102.8163223266602	1032.46435546875	1040.641357421875	31.02321815490723	805.8593139648438	935.3648071289062	94.5753173828125	803.5460205078125	896.7702026367188	119.3068237304688	972.3226928710938	926.4302368164062	69.26390838623047	634.2716674804688	941.8917236328125	43.27678680419922	698.8712768554688	918.1161499023438	108.027961730957	717.0777587890625	901.7015991210938	10.87617683410645	1558.332763671875	1074.328491210938	-172.0869750976562	1572.304809570312	1150.324584960938	-118.5922393798828	1566.755615234375	1039.982666015625	-44.84873962402344	1562.165283203125	1225.037475585938	-20.44610214233398	940.1557006835938	1336.478271484375	15.08129501342773	927.4951782226562	979.6328735351562	-119.6703414916992	935.7640991210938	1025.264892578125	-133.4681396484375	927.4529418945312	1289.146362304688	34.91476440429688	451.8084106445312	1322.593017578125	7.160117149353027	593.2716674804688	1330.0908203125	242.8369445800781	45.23434448242188	1282.417114257812	144.2295227050781	239.9963989257812	1316.27197265625	23.58355331420898	44.73080062866211	1235.021728515625	100.5252304077148	44.13848876953125	1196.61376953125	118.6610794067383	40.08892059326172	1304.3427734375	277.9558410644531	46.82730102539062	1224.149047851562	-199.9673309326172	476.0038757324219	995.0941162109375	-115.6370239257812	724.5634765625	972.40673828125	-322.4406433105469	64.50897979736328	1030.462524414062	-256.07763671875	362.7505187988281	1001.241333007812	-498.4931030273438	118.3854675292969	1034.749389648438	-397.6043701171875	80.95656585693359	997.6162109375	-278.4727478027344	34.34058380126953	1104.072387695312	-317.52392578125	760.7435302734375	1191.32470703125	-443.6357421875	98.26323699951172	1085.476684570312	nan	nan	nan	nan	nan	nan	nan	nan	nan	
86	0.85	79.97904968261719	948.6334228515625	1099.4931640625	67.09228515625	952.8909301757812	1229.477783203125	65.94188690185547	1033.034423828125	1163.54345703125	-177.6314849853516	1170.420532226562	1112.623168945312	66.01287841796875	1133.790649414062	1178.6201171875	9.902851104736328	1379.914428710938	1173.376220703125	-133.3044586181641	1292.627563476562	1121.770141601562	81.42336273193359	1237.624877929688	1129.349609375	-5.108944416046143	1345.53369140625	1277.89453125	-104.0631408691406	1357.223022460938	1296.819702148438	-102.423454284668	1243.651489257812	1376.805908203125	-143.5573272705078	1047.213989257812	1395.795776367188	-67.81236267089844	1019.91845703125	1367.815673828125	-265.9652099609375	917.37548828125	1249.854370117188	-271.6767272949219	872.7362060546875	1317.975463867188	-195.1499786376953	963.5651245117188	1370.369506835938	-308.7135925292969	808.5005493164062	1273.943481445312	-330.0006713867188	840.6697387695312	1223.338745117188	6.71985387802124	1353.13330078125	1006.356201171875	51.07331848144531	1292.901611328125	963.4008178710938	119.5497283935547	1037.945556640625	949.8329467773438	96.47883605957031	1030.788452148438	1040.947998046875	27.97615051269531	803.3662109375	934.96826171875	92.35894012451172	801.3499145507812	897.6859130859375	115.4968414306641	970.3594360351562	927.2786865234375	67.57114410400391	632.110107421875	943.3048706054688	41.47531890869141	696.3699951171875	918.68212890625	106.4524154663086	715.009765625	903.3921508789062	4.998714923858643	1556.3408203125	1072.433959960938	-178.6447448730469	1570.750854492188	1146.815795898438	-124.1824264526367	1565.099731445312	1036.9833984375	-52.1113166809082	1560.232421875	1222.588989257812	-28.81941223144531	938.5736083984375	1334.123168945312	7.998426914215088	925.6480712890625	977.538818359375	-126.8491287231445	933.7478637695312	1022.534423828125	-141.8222961425781	925.4925537109375	1286.370483398438	29.44748687744141	450.8180847167969	1320.971923828125	0.5186776518821716	592.0808715820312	1328.100219726562	242.4861450195312	46.29636001586914	1282.697021484375	141.5382995605469	240.3691864013672	1315.734497070312	23.51140403747559	44.34521865844727	1235.019165039062	100.5669708251953	44.22415161132812	1196.640747070312	118.5749282836914	40.06916046142578	1304.434448242188	277.8433227539062	48.59182357788086	1224.552856445312	-207.0284576416016	474.2643127441406	992.5665893554688	-122.2458419799805	722.5430908203125	969.43310546875	-333.4508361816406	63.99894714355469	1027.49560546875	-264.1881103515625	361.6339111328125	998.4384155273438	-509.053955078125	119.6561431884766	1030.241455078125	-408.0928649902344	81.22079467773438	993.9844360351562	-290.2516784667969	33.55061721801758	1101.55322265625	-326.9396057128906	760.6000366210938	1185.822021484375	-454.8830261230469	98.94022369384766	1081.423095703125	nan	nan	nan	nan	nan	nan	nan	nan	nan	
87	0.86	72.30234527587891	947.0675659179688	1097.463012695312	58.73187255859375	951.445068359375	1227.376586914062	57.99580764770508	1031.15869140625	1161.631591796875	-185.1483154296875	1168.668579101562	1109.203369140625	58.35860824584961	1132.054077148438	1176.668701171875	2.299338579177856	1378.0849609375	1170.9833984375	-140.7370300292969	1290.796630859375	1118.436645507812	73.893798828125	1235.681762695312	1127.770263671875	-13.42855930328369	1343.822021484375	1275.297241210938	-112.5572662353516	1355.478515625	1293.592895507812	-111.320442199707	1241.890258789062	1373.701538085938	-152.7599639892578	1045.571899414062	1392.260009765625	-76.91720581054688	1018.135681152344	1364.60205078125	-274.9788208007812	916.6915893554688	1245.223999023438	-281.2950134277344	872.0320434570312	1313.350463867188	-204.5941467285156	962.274169921875	1366.3857421875	-318.4862670898438	808.1199340820312	1268.989868164062	-339.7909851074219	840.65234375	1218.79345703125	0.310430496931076	1351.0556640625	1004.0205078125	45.08876800537109	1290.820556640625	961.7039794921875	114.6462249755859	1036.030517578125	950.3666381835938	89.82850646972656	1029.093627929688	1041.0576171875	24.51722526550293	800.938720703125	934.4014892578125	89.66954040527344	799.21484375	898.4025268554688	111.3256378173828	968.4158935546875	927.9428100585938	65.36491394042969	630.007080078125	944.4721069335938	39.20502471923828	693.9484252929688	919.043701171875	104.3904266357422	713.0101928710938	904.8566284179688	-0.9590680599212646	1554.354736328125	1070.4072265625	-185.2626800537109	1569.300170898438	1143.199829101562	-129.8613433837891	1563.491455078125	1033.86669921875	-59.44539260864258	1558.358032226562	1220.022583007812	-37.40520858764648	936.9854736328125	1331.642211914062	0.8227625489234924	923.8901977539062	975.3056640625	-134.1852722167969	931.7893676757812	1019.674255371094	-150.341064453125	923.5648193359375	1283.471923828125	23.77432060241699	449.8834838867188	1319.251220703125	-6.359715938568115	590.92822265625	1325.986572265625	242.0609130859375	47.56498336791992	1282.99267578125	138.6986236572266	240.8834838867188	1315.138793945312	23.39201736450195	43.90201568603516	1235.054321289062	100.5468368530273	44.35719299316406	1196.715942382812	118.4266891479492	40.036865234375	1304.529174804688	277.6484069824219	50.6083984375	1224.950317382812	-214.4850463867188	472.6661682128906	989.9288330078125	-129.0950317382812	720.5790405273438	966.2728271484375	-343.2163696289062	63.25485229492188	1024.814086914062	-272.3139038085938	360.4418334960938	995.6266479492188	-518.5492553710938	119.898078918457	1026.072998046875	-417.4283142089844	80.86602020263672	990.6837158203125	-300.6318359375	32.79532241821289	1099.305908203125	-336.3367004394531	760.3259887695312	1180.54833984375	-464.9220581054688	98.86357879638672	1077.704833984375	nan	nan	nan	nan	nan	nan	nan	nan	nan	
